<?xml version="1.0" encoding="UTF-8"?>
<!-- Generator: Adobe Illustrator 15.0.0, SVG Export Plug-In . SVG Version: 6.00 Build 0)  -->
<!DOCTYPE svg PUBLIC "-//W3C//DTD SVG 1.1//EN" "http://www.w3.org/Graphics/SVG/1.1/DTD/svg11.dtd">
<svg version="1.1" id="Layer_1" xmlns="http://www.w3.org/2000/svg" xmlns:xlink="http://www.w3.org/1999/xlink" x="0px" y="0px" width="200px" height="200px" viewBox="0 0 200 200" enable-background="new 0 0 200 200" xml:space="preserve">
<g>
	<g>
		<g>
			<g>
				<path fill="#010202" d="M5.901,104.879c0.565,0.101,0.421,0.476,0.13,0.476c-0.464,0-2.215-0.042-2.679-0.042      c-0.45,0-2.361,0.042-2.811,0.042c-0.145,0-0.232-0.071-0.232-0.217c0-0.492,2,0.146,2-1.434v-6.778c0-1.564-2-0.725-2-1.203      c0-0.145,0.088-0.218,0.232-0.218c0.463,0,2.361,0.045,2.824,0.045c0.45,0,2.216-0.045,2.665-0.045      c0.276,0,0.42,0.291-0.145,0.408c-0.71,0.144-1.463,0.549-1.463,1.158c0,0.854-0.028,2.405-0.015,3.199      c1.738-0.114,3.651-0.463,5.374-0.622c0-0.333-0.044-2.216-0.044-2.563c0-0.623-0.564-1.028-1.303-1.172      c-0.579-0.117-0.405-0.408-0.144-0.408c0.463,0,2.245,0.045,2.708,0.045c0.449,0,2.071-0.045,2.52-0.045      c0.146,0,0.247,0.06,0.247,0.218c0,0.508-1.984-0.405-1.984,1.26v6.751c0,0.578,0.941,1.013,1.593,1.145      c0.608,0.115,0.434,0.476,0.144,0.476c-0.448,0-2.07-0.042-2.52-0.042c-0.463,0-2.245,0.042-2.708,0.042      c-0.146,0-0.232-0.071-0.232-0.217c0-0.434,1.521-0.043,1.623-0.896c0.116-0.812,0.144-2.738,0.101-4.041      c-1.303,0.13-4.171,0.448-5.374,0.637c0,0.986,0.029,1.84,0.029,2.839C4.438,104.269,5.221,104.747,5.901,104.879z"/>
			</g>
			<g>
				<path fill="#010202" d="M22.551,105.671c-2.723,0-5.75-1.725-5.75-5.04c0-3.623,3.056-5.172,5.809-5.172      c2.737,0,6.083,1.174,6.083,5.141C28.693,104.006,25.463,105.671,22.551,105.671z M22.393,95.733      c-1.97,0-2.985,2.304-2.985,4.478c0,2.374,1.072,5.155,3.637,5.155c2.288,0,3.114-2.144,3.114-4.272      C26.159,98.052,24.956,95.733,22.393,95.733z"/>
			</g>
			<path fill="#010202" d="M32.516,96.415c-0.333-0.796-2.116-0.231-2.116-0.636c0-0.146,0.117-0.218,0.248-0.218     c0.493,0,3.171,0.043,3.664,0.043c0.521,0,1.751-0.043,2.274-0.043c0.129,0,0.26,0.058,0.26,0.218     c0,0.492-2.086-0.407-2.086,1.462v3.983c0,1.941,0.985,3.606,3.187,3.606c2.187,0,3.794-1.579,3.794-3.519     c0-1.13,0-2.751-0.028-3.897c-0.029-1.318-0.695-1.288-1.927-1.564c-0.159-0.029-0.26,0.087-0.26-0.101     c0-0.146,0.129-0.189,0.246-0.189c0.536,0,1.521,0.043,2.057,0.043c0.435,0,1.594-0.043,2.027-0.043     c0.117,0,0.203,0.03,0.203,0.16c0,0.435-1.462-0.203-1.752,0.74c-0.203,0.666-0.087,3.982-0.087,4.868     c0,2.315-1.825,4.271-4.418,4.271c-3.186,0-5.17-2.202-5.17-4.953v-3.303C32.631,97.039,32.631,96.69,32.516,96.415z"/>
			<path fill="#010202" d="M52.044,105.671c-0.724,0-3.896-0.42-4.534-0.42c-0.274,0-0.289,0.23-0.536,0.23     c-0.086,0-0.26-0.058-0.26-0.173c0-0.218,0.26-0.58,0.26-1.015c0-0.391-0.521-2.504,0.188-2.504c0.073,0,0.232,0.043,0.232,0.13     c0,0.188-0.043,0.361-0.043,0.55c0,1.304,1.969,2.854,4.765,2.854c2.187,0,3.201-0.436,3.201-1.97     c0-2.723-8.473-1.086-8.473-4.997c0-2.448,3.332-2.897,4.707-2.897c1.781,0,3.579,0.492,4.099,0.681     c0.247,0.086,0.348-0.435,0.479-0.435c0.072,0,0.161,0.073,0.161,0.145c0,0.216-0.146,0.448-0.146,0.695     c0,0.29,0.42,2.434-0.146,2.434c-0.202,0-0.159-0.188-0.159-0.348c0-0.739-1.203-2.853-4.331-2.867     c-0.927,0-3.099,0.376-3.099,1.666c0,2.795,8.357,0.724,8.357,4.968C56.767,105.309,54.216,105.671,52.044,105.671z"/>
			<g>
				<path fill="#010202" d="M60.251,95.533c1.145,0,4.288,0.087,5.431,0.087c1.072,0,3.187-0.146,4.23-0.146      c0.246,0,0.086,0.479,0.086,0.594c0,0.276,0.246,1.448-0.232,1.448c-0.274,0-0.086-0.144-0.086-0.347      c0-0.985-2.288-1.216-3.013-1.216c-0.522,0-1.188,0-1.708,0.014c-0.754,0.015-0.855,0.086-0.855,0.826v2.433      c0,0.159,0.015,0.276,0.204,0.276c0.592,0,2.274-0.059,2.723-0.392c0.405-0.304,0.071-1.072,0.418-1.072      c0.087,0,0.204,0.073,0.204,0.173c0,0.494-0.101,0.985-0.101,1.493c0,0.261,0.274,1.405-0.116,1.405      c-0.362,0-0.03-0.798-0.42-1.086c-0.478-0.349-2.622-0.029-2.766-0.029c-0.101,0-0.146,0.043-0.146,0.145v3.433      c0,1.317,0.436,1.464,1.637,1.464c0.826,0,3.07-0.045,3.794-0.551c0.42-0.291,0.709-0.841,0.709-1.362      c0-0.145,0-0.334,0.204-0.334c0.275,0,0.202,0.262,0.202,0.494c0,0.607-0.448,1.144-0.448,1.723      c0,0.159,0.057,0.305,0.057,0.463c0,0.102-0.101,0.203-0.202,0.203c-0.188,0-0.81-0.203-1.145-0.231      c-1.376-0.087-4.374-0.057-5.765-0.057c-0.506,0-2.433,0.043-2.955,0.043c-0.146,0-0.231-0.073-0.231-0.218      c0-0.493,2.056,0.275,2.056-1.059c0-2.215-0.015-4.852-0.015-7.067c0-0.623-0.218-1.085-1.608-1.216      c-0.159-0.016-0.375,0.086-0.375-0.117C60.02,95.605,60.105,95.533,60.251,95.533z"/>
			</g>
		</g>
		<path fill="#010202" d="M83.291,103.975c-2.722,0-4.751-1.94-4.751-3.42c0-1.766,2.059-3.488,4.81-3.488    c2.736,0,4.939,1.433,4.939,3.477C88.289,102.323,86.203,103.975,83.291,103.975 M83.133,97.254c-1.492,0-1.984,1.551-1.984,3.026    c0,1.609,1.144,3.491,2.636,3.491c1.319,0,1.969-1.448,1.969-2.896C85.753,98.817,84.625,97.254,83.133,97.254 M96.098,99.021    c0,0.288-0.103,0.564-0.103,0.854c0,0.276,0.088,0.538,0.088,0.811c0,0.06-0.102,0.115-0.189,0.115    c-0.479,0,0.232-0.725-0.999-0.725c-0.377,0-0.709,0.104-1.231,0.104c-0.117,0-0.144,0.043-0.144,0.115v1.941    c0,0.262,0,0.681,0.157,0.927c0.189,0.29,0.653,0.333,1.072,0.333h0.449c0.216,0,0.377,0.015,0.377,0.116    c0,0.132-0.161,0.146-0.319,0.146c-0.638,0-1.565-0.029-2.202-0.029c-0.493,0-2.87,0.029-3.361,0.029    c-0.145,0-0.231-0.044-0.231-0.146c0-0.287,1.535,0.029,1.709-0.478c0.101-0.274,0.146-1.537,0.146-2.752    c0-1.116-0.045-2.202-0.103-2.463c-0.158-0.71-1.665-0.245-1.665-0.564c0-0.101,0.086-0.175,0.231-0.175    c0.755,0.016,4.433,0.104,4.968,0.104c1.088,0,2.433-0.016,2.651-0.06c0.072-0.028,0.13-0.028,0.202-0.028    c0.131,0,0.175,0.116,0.175,0.245c0,0.188-0.074,0.421-0.074,0.493c0,0.072,0.06,0.291,0.06,0.492c0,0.218-0.06,0.406-0.29,0.406    c-0.099,0-0.129-0.016-0.129-0.057c0-0.044,0.03-0.088,0.03-0.159c0-0.942-0.539-1.059-3.117-1.059    c-0.45,0-0.737,0.029-0.737,0.434v1.665c0,0.191,0.071,0.191,0.361,0.191c0.435,0,0.839,0.027,1.376-0.146    c0.695-0.23,0.288-0.812,0.667-0.812C96.039,98.89,96.098,98.962,96.098,99.021"/>
		<g>
			<g>
				<path fill="#010202" d="M115.213,105.366c0,0.159-0.116,0.217-0.261,0.217c-0.492,0-3.448-0.043-3.954-0.043      c-0.492,0-3.519,0.043-4.026,0.043c-0.13,0-0.261-0.058-0.261-0.217c0-0.448,3.187,0.378,3.187-1.36      c0-2.115,0.028-4.592-0.015-6.708c-0.013-1.028-1.781-1.028-2.724-1.028c-1.291,0-1.708,1.811-1.708,2.78      c0,0.144,0.043,0.305,0.043,0.449c0,0.115-0.102,0.188-0.218,0.188c-0.303,0-0.303-0.348-0.303-0.609      c0-0.463,0.26-2.46,0.26-2.924c0-0.131-0.029-0.261-0.059-0.391c0.043-0.101,0.015-0.16,0.102-0.16      c0.607,0.319,1.131,0.305,1.798,0.305h8.169c0.303,0,0.78-0.014,1.042-0.145c0.086-0.044,0.231-0.204,0.317-0.204      c0.116,0,0.088,0.116,0.088,0.218c0,0.13-0.044,0.245-0.044,0.362c0,0.45,0.246,2.462,0.246,2.911      c0,0.261,0.045,0.622-0.29,0.622c-0.114,0-0.231-0.069-0.231-0.201c0-0.174,0.059-0.348,0.059-0.522      c0-0.913-0.465-2.679-1.593-2.679c-0.727,0-2.796-0.044-2.796,0.752c0,2.201-0.015,4.752-0.015,6.954      C112.026,105.772,115.213,104.888,115.213,105.366z"/>
			</g>
			<g>
				<path fill="#010202" d="M123.675,96.168c0-0.202,0.261-0.217,0.449-0.217c0.725,0,1.289-0.391,1.521-0.391      c0.102,0,0.247,0.116,0.247,0.204c0,0.159-0.391,0.13-0.391,0.333c0,0.55,3.548,8.228,3.88,8.662      c0.493,0.623,1.42,0.304,1.42,0.594c0,0.159-0.085,0.231-0.29,0.231c-0.607,0-1.563-0.043-2.173-0.043      c-0.651,0-2.244,0.043-2.896,0.043c-0.159,0-0.288-0.058-0.288-0.202c0-0.436,1.911,0.101,1.911-0.711      c0-0.361-1.563-3.46-1.563-3.46s-3.144,0.491-3.202,0.636c-0.245,0.595-0.941,2.058-0.941,2.71c0,1.042,1.478,0.362,1.478,0.796      c0,0.188-0.115,0.231-0.334,0.231c-0.592,0-1.187-0.043-1.78-0.043c-0.608,0-1.201,0.043-1.797,0.043      c-0.158,0-0.26-0.072-0.26-0.202c0-0.305,0.767-0.305,1.173-0.436c0.884-0.275,3.982-7.227,4.315-8.357      C124.254,96.227,123.675,96.459,123.675,96.168z M124.124,98.081c-0.073,0-0.129,0.261-0.158,0.304      c-0.19,0.275-1.348,2.766-1.377,2.868c0.622-0.146,2.723-0.565,2.723-0.565S124.312,98.081,124.124,98.081z"/>
			</g>
			<g>
				<path fill="#010202" d="M137.937,104.715c0.317,0.811,1.822,0.246,1.822,0.651c0,0.159-0.114,0.217-0.258,0.217      c-0.463,0-2.247-0.043-2.709-0.043c-0.494,0-2.448,0.043-2.941,0.043c-0.129,0-0.245-0.072-0.245-0.217      c0-0.479,2.085,0.362,2.085-1.462v-6.402c0-0.305,0-0.622-0.115-0.912c-0.334-0.826-1.97-0.217-1.97-0.637      c0-0.146,0.116-0.22,0.245-0.22c0.493,0,2.447,0.045,2.941,0.045c0.462,0,2.246-0.045,2.709-0.045      c0.13,0,0.258,0.06,0.258,0.204c0,0.506-1.938-0.363-1.938,1.477c0,4.78,0,4.083,0,6.475      C137.82,104.164,137.835,104.453,137.937,104.715z"/>
			</g>
			<g>
				<path fill="#010202" d="M149.025,95.604c0.173,0,0.334,0.058,0.492,0.088c0.29,0.042,1.825,0.058,2.115,0.058      c0.738,0,2.317-0.189,3.057-0.189c1.476,0,5.358-0.144,5.358,2.637c0,2.823-3.549,3.201-5.011,3.201      c-0.334,0-1.999-0.219-1.999-0.666c0-0.116,0.13-0.232,0.201-0.175c0.508,0.406,0.941,0.479,1.521,0.479      c1.116,0,2.854-0.016,2.854-2.709c0-2.447-2.173-2.403-3.36-2.403c-1.274,0-1.404,0.549-1.404,1.607v6.184      c0,0.305,0.015,0.739,0.114,1.028c0.275,0.783,2.276,0.146,2.276,0.652c0,0.146-0.132,0.188-0.247,0.188      c-0.58,0-2.594-0.072-3.172-0.072c-0.493,0-2.229,0.072-2.723,0.072c-0.131,0-0.263-0.072-0.263-0.217      c0-0.348,1.362,0.028,1.682-0.479c0.246-0.39,0.334-6.836,0.116-8.096c-0.176-0.985-1.812-0.608-1.812-0.898      C148.822,95.777,148.88,95.604,149.025,95.604z"/>
				<path fill="#010202" d="M167.722,104.685c0.317,0.812,1.824,0.247,1.824,0.651c0,0.161-0.117,0.218-0.26,0.218      c-0.465,0-2.246-0.043-2.708-0.043c-0.492,0-2.449,0.043-2.942,0.043c-0.129,0-0.244-0.072-0.244-0.218      c0-0.478,2.085,0.364,2.085-1.461v-6.403c0-0.304,0-0.622-0.116-0.912c-0.334-0.827-1.969-0.217-1.969-0.637      c0-0.146,0.115-0.219,0.244-0.219c0.493,0,2.45,0.045,2.942,0.045c0.462,0,2.243-0.045,2.708-0.045      c0.129,0,0.26,0.06,0.26,0.204c0,0.506-1.94-0.363-1.94,1.478c0,4.778,0,4.084,0,6.475      C167.605,104.135,167.621,104.425,167.722,104.685z"/>
			</g>
			<g>
				<path fill="#010202" d="M175.138,97.095c-0.188,0-0.16,0.985-0.16,1.13c0,1.564,0,3.998,0.045,5.562      c0.027,1.028,1.058,1.114,2.128,1.289c0.133,0.014,0.232-0.102,0.232,0.058c0,0.188-0.13,0.23-0.29,0.23      c-0.404,0-1.664-0.056-2.07-0.056c-0.492,0-1.724,0.056-2.217,0.056c-0.146,0-0.247-0.056-0.247-0.217      c0-0.159,0.131-0.043,0.262-0.071c0.869-0.16,1.681-0.305,1.681-1.102c0-2.201-0.159-5.04-0.103-7.532      c0.015-0.666-1.274-0.695-1.738-0.751c-0.129-0.015-0.071-0.218,0.073-0.218c0.219,0,1.174,0.043,1.391,0.043      c0.246,0,2.085-0.043,2.332-0.043c0.101,0,0.189,0.13,0.232,0.203l6.43,6.62c0.146,0,0.146-0.941,0.146-1.103      c0.013-1.535,0.043-2.983-0.045-4.504c-0.028-0.58-0.926-0.753-1.638-0.883c-0.187-0.029-0.534,0.13-0.534-0.13      c0-0.174,0.116-0.217,0.274-0.217c0.436,0,1.695,0.043,2.128,0.043c0.393,0,1.363-0.043,1.754-0.043      c0.16,0,0.247,0.043,0.247,0.217c0,0.13-1.68,0.085-1.68,1.173c0,2.172-0.088,5.896,0.027,8.066      c0.015,0.146,0.058,0.29,0.058,0.448c0,0.103-0.085,0.219-0.201,0.219L175.138,97.095z"/>
			</g>
			<g>
				<path fill="#010202" d="M194.158,105.583c-3.316,0-6.488-1.1-6.488-4.882c0-4.257,3.477-5.257,6.634-5.257      c1.173,0,3.085,0.68,3.723,0.68c0.261,0,0.462-0.333,0.579-0.333c0.39,0,0.13,0.436,0.072,0.624      c-0.204,0.71,0.116,1.768-0.349,1.768c-0.188,0-0.086-0.188-0.086-0.332c0.028-1.391-1.984-1.899-3.968-1.899      c-2.377,0-3.956,2.478-3.956,4.68c0,2.302,1.812,4.445,4.187,4.445c0.651,0,1.275-0.29,1.767-0.725      c0.318-0.29,0.231-1.737,0.231-2.188c0-1.215-1.591-0.521-1.591-1.057c0-0.174,0.114-0.202,0.258-0.202      c0.567,0,1.132,0.058,1.695,0.058c0.479,0,2.115-0.058,2.593-0.058c0.231,0,0.335,0.202-0.028,0.289      c-0.724,0.188-0.796,0.247-0.796,1.013c0,0.638,0,1.854,0,2.492C197.765,104.699,195.709,105.583,194.158,105.583z"/>
			</g>
		</g>
	</g>
</g>
</svg>