<?xml version="1.0" encoding="utf-8"?>
<!-- Generator: Adobe Illustrator 15.0.0, SVG Export Plug-In . SVG Version: 6.00 Build 0)  -->
<!DOCTYPE svg PUBLIC "-//W3C//DTD SVG 1.1//EN" "http://www.w3.org/Graphics/SVG/1.1/DTD/svg11.dtd">
<svg version="1.1" id="Layer_1" xmlns="http://www.w3.org/2000/svg" xmlns:xlink="http://www.w3.org/1999/xlink" x="0px" y="0px"
	 width="200px" height="200px" viewBox="0 0 200 200" enable-background="new 0 0 200 200" xml:space="preserve">
<g>
	<g>
		<path fill="#007188" d="M51.564,146.71c-1.491-3.896-7.559-22.143-9.177-27.381c-1.333,1.973-1.441,2.292-3.707,3.13
			c-1.577,3.855-7.401,20.438-9.284,24.29c-0.702,1.452-2.001,3.043-4.361,3.635v1.141H35.25v-1.141
			c-2.29-0.358-3.618-2.036-2.773-4.99c0.146-0.51,0.575-1.805,1.156-3.509h11.376l1.189,3.509c0.701,1.923,0.35,4.543-2.634,4.99
			v1.141h12.125v-1.141C53.202,149.873,52.526,149.16,51.564,146.71z M34.362,139.749c2.045-5.95,4.981-14.285,4.981-14.285h0.088
			l4.85,14.285H34.362z"/>
		<path fill="#007188" d="M8.614,122.263h2.913v20.847c0,3.404-0.366,5.128-1.244,6.068c-0.701,0.741-2.034,0.995-3.468,1.206v1.141
			h14.342v-1.141c-1.432-0.211-2.764-0.465-3.466-1.206c-0.88-0.94-1.246-2.664-1.246-6.068l0.01-20.847h2.923
			c2.07,0,4.457,0.499,5.603,1.803c0.958,1.096,1.67,2.819,2.2,4.778h0.486v-8.457H0.328v8.457h0.486
			c0.53-1.959,1.24-3.683,2.201-4.778C4.16,122.762,6.545,122.263,8.614,122.263z"/>
		<path fill="#007188" d="M184.89,152.046c3.984,0,7.052-0.653,9.823-1.49v-4.236c0-3.407,0.358-5.129,1.236-6.065
			c0.701-0.745,2.036-0.999,3.469-1.21v-1.14h-14.894v1.14c1.431,0.211,3.316,0.465,4.017,1.21c0.883,0.937,1.248,2.658,1.248,6.065
			c0,1.818-0.063,1.194-0.305,3.36c-1.078,0.55-2.77,0.839-4.718,0.839c-5.748,0-10.748-5.34-10.685-14.85
			c0.041-7.489,1.93-13.679,11.084-13.679c5.228,0,7.221,2.908,8.501,8.478h1.139v-8.163c-1.479-0.798-5.232-1.967-9.478-1.967
			c-12.893,0-16.881,9.04-16.881,15.687C168.447,145.875,174.419,152.046,184.89,152.046z"/>
		<path fill="#007188" d="M162.749,151.524V127.42c0-0.924,0.177-2.306,0.262-3.003c0.221-1.58,1.707-2.193,3.769-2.41v-1.139
			h-10.73v1.139c2.89,0.217,4.38,0.83,4.6,2.41c0.086,0.697,0.262,2.079,0.262,3.003v14.164h-0.089
			c-6.527-7.934-10.116-12.791-16.635-20.716h-9.254v1.139c2.721,0.517,3.854,2.041,5.08,3.618v19.984
			c0,0.923-0.178,1.664-0.263,2.369c-0.222,1.576-1.664,2.191-3.768,2.405v1.141h10.728v-1.141
			c-2.887-0.214-4.378-0.829-4.597-2.405c-0.087-0.705-0.262-1.446-0.262-2.369v-19.352c6.892,8.24,13.613,16.562,20.69,25.267
			H162.749z"/>
		<path fill="#007188" d="M62.306,149.178c-0.703,0.741-2.035,0.995-3.468,1.206v1.141h14.343v-1.141
			c-1.433-0.211-2.767-0.465-3.467-1.206c-0.881-0.94-1.246-2.664-1.246-6.068v-13.826c0-3.408,0.365-5.128,1.246-6.065
			c0.7-0.745,2.034-1,3.467-1.204v-1.146H58.837v1.146c1.433,0.204,2.766,0.459,3.468,1.204c0.881,0.938,1.242,2.657,1.242,6.065
			v13.826C63.548,146.514,63.187,148.237,62.306,149.178z"/>
		<path fill="#007188" d="M120.215,149.178c-0.701,0.741-2.035,0.995-3.468,1.206v1.141h14.344v-1.141
			c-1.433-0.211-2.768-0.465-3.467-1.206c-0.883-0.94-1.249-2.664-1.249-6.068v-13.826c0-3.408,0.366-5.128,1.249-6.065
			c0.699-0.745,2.034-1,3.467-1.204v-1.146h-14.344v1.146c1.433,0.204,2.767,0.459,3.468,1.204c0.882,0.938,1.246,2.657,1.246,6.065
			v13.826C121.461,146.514,121.097,148.237,120.215,149.178z"/>
		<path fill="#007188" d="M98.655,138.36c1.024,0.014,2.833,0.014,3.18,0.011c6.812-0.133,12.307-3.104,12.307-9.354
			c0-5.295-3.944-8.149-14.054-8.149H88.946v1.146c1.431,0.204,2.766,0.459,3.466,1.204c0.881,0.938,1.244,2.657,1.244,6.065v13.826
			c0,3.404-0.363,5.128-1.244,6.068c-0.7,0.741-2.035,0.995-3.466,1.206v1.141h14.66v-1.141c-1.43-0.211-2.765-0.465-3.466-1.206
			c-0.88-0.94-1.583-2.664-1.484-6.068V138.36z M98.655,122.263h1.436c4.905,0,8.389,2.281,8.389,7.188
			c0,4.075-2.77,7.595-9.825,7.69V122.263z"/>
	</g>
	<path fill-rule="evenodd" clip-rule="evenodd" fill="#007188" d="M32.312,55.613c-0.25-0.843-0.643-3.161,2.046-3.285
		c0.571-0.027,0.222-1.79,2.032-1.836c2.621-0.08,1.238-0.686,4.809-0.954c3.542-0.259,4.614,1.953,6.375,2.222
		c1.22,0.179,1.721-0.611,3.206-0.163c0.753,0.227,0.818,0.987,1.649,1.179c1.686,0.385,2.912,0.259,2.965,1.104
		c0.021,0.386-1.261-0.061-1.055,0.577c0.209,0.651,2.338-0.165,3.227,0.263c0.582,0.282-0.006,0.73,0.486,0.895
		c0.49,0.16,0.999-0.259,1.895,0.107c0.804,0.327,0.689,0.875,0.813,1.193c0.037,0.103,0.037,0.141,0.052,0.151
		c0.041,0.021,0.173-0.122,1.09-0.063c1.314,0.078,1.363,0.651,0.421,0.81c-0.944,0.161-0.949,0.383-0.703,0.79
		c0.247,0.405,1.895-0.225,2.144,0.524c0.159,0.479-1.038,0.685-0.266,1.159c0.683,0.422,1.334,0.293,2.935-0.195
		c1.603-0.485,1.574-0.108,3.156,0.404c2.224,0.731,3.509-1.105,3.755-0.209c0.246,0.897-2.754,1.464-3.809,1.756
		c-0.53,0.147-1.003,0.314-0.911,0.686c0.112,0.461,2.966-0.792,2.966,0.211c0,0.313-1.25,0.795-2.317,1.126
		c-1.065,0.324-0.947,0.664-3.933,0.309c-1.353-0.159-0.104,1.107-2.208,0.847c-1.481-0.189-1.156-1.234-3.247-1.214
		c-4.204,0.043-5.336-0.49-5.336-1.178c0-0.622,1.172-1.256,0.469-1.296c-1.695-0.086-2.71-0.486-2.339-0.974
		c0.37-0.488,2.215-0.897,0-1.138c-2.215-0.249-2.135-0.983-3.077-0.327c-0.332,0.226-0.697,0.401-1.058,0.527
		c-1.43,1.313-3.747,2.78-5.786,2.736c-7.019-0.159-5.212,5.566-1.522,5.05c0.065-0.069,1.243-1.732,3.798-2.074
		c1.313-4.46,6.368-5.52,6.368-5.52c-3.472,1.889-4.983,3.61-4.977,5.292c0.242-0.015,0.461-0.012,0.643,0.03l0.115,0.027
		c0.898,0.074,1.561,0.293,2.087,0.558c3.414-2.664,7.035-1.528,7.035-1.528c-1.372,0.075-4,0-6.172,2.086
		c0.562,0.432,0.458,0.952,1.209,0.952c1.16,0,2.188,0.23,3.636,1.495c0.161,0.142,0.372,0.172,0.527,0.272
		c0.447,0.132,1.18-0.435,2.141,0.461c0.73,0.677,0.823,0.812,1.848,0.446c1.433-0.515,1.946,0.513,2.431,0.712
		c0.485,0.205,1.625,0.608,2.49-0.366c0.866-0.985,2.528,0.285,1.213,0.438c-1.311,0.146-0.584,1.193-1.066,1.898
		c-0.483,0.706-1.104,0.623-2.035,0.496c-0.931-0.12-1.557,0.278-1.876,0.746c-0.323,0.475-1.113,0.201-1.661-0.201
		c-0.547-0.4-0.77-0.544-1.573,0.448c-0.561,0.689-1.059,0.489-1.726,0.153c-0.671-0.337-1.264-0.33-2.165,0.135
		c-0.188,0.092-1.391,0.429-2.184-0.751c-0.792-1.182-1.06-0.274-2.311,0.072c-0.349,0.095-0.529,0.085-0.621,0.021
		c-1.235,0.859-2.698,1.381-3.515,1.266l-1.868-0.366c1.523-0.136,2.49-0.179,3.883-1.097c-0.297,0.014-0.629-0.008-0.984-0.091
		c-1.134-0.26-0.484-0.891-0.533-1.396l-0.111-0.018c-0.053,0.076-0.157,0.147-0.344,0.191l-0.108,0.022
		c-0.465,1.341-2.481,2.316-3.844,2.011l-4.371-0.602c4.077,0.101,5.568-1.829,5.691-3.112c-1.04,0.231-0.861-0.88-0.547-0.996
		c-1.767-1.13-7.048-1.869-4.277-6.17l0.115-0.176c0.047-0.633-0.809-0.774-1.18-0.818c-1.667-0.198-0.668-1.749-0.579-3.427
		l-0.304-0.087c-1.681-0.487-0.603,0.13-2.477,0.13c-1.439,0-1.019-1.33-1.019-1.601C32.037,57.321,31.196,56.581,32.312,55.613z
		 M37.8,60.995c0.022-0.711,0.236-1.259,0.556-1.705c-0.117,0.011-0.233,0.011-0.363,0.002c-0.124-0.002-0.621,0.023-1.499-0.167
		c-0.211,1.264-0.527,2.436,0.324,2.534C37.277,61.706,37.784,61.602,37.8,60.995z M38.863,59.39
		c-0.472,1.215-0.501,2.189,1.753,2.27c4.878,0.225,8.108-3.058,4.349-2.819c-2.358,0.153-2.638-1.696-3.767-0.347
		C40.236,59.638,39.123,59.267,38.863,59.39z M160.608,91.162c5.213,5.929,11.057,7.898,15.193,6.866
		c-1.069,2.141-3.209,3.208-4.277,3.208c-3.094-2.063-6.891-4.128-10.991-10.023C160.383,90.995,160.429,90.959,160.608,91.162z
		 M104.634,86.031l-0.137-0.522C104.497,85.509,104.545,85.715,104.634,86.031z M106.324,90.185c0,0.081-0.127,0.445-0.168,0.738
		c-0.052,0.339-0.132,1.225-0.202,1.537c-0.068,0.31-0.224,0.726-0.403,0.946s-0.677,0.644-0.76,0.706l-1.066,0.813
		c-0.229,1.121,0.248,2.899,0.37,3.19c-0.057,0.054-0.103,0.104-0.232,0.132c0.034,0.282,0.395,2.521,1.335,3.787
		c1.585,0.957,3.295,3.265,7.694,2.369c1.461-0.299,2.711-0.753,4.046-0.084l-0.236,0.479c0,0-0.124-0.062-0.338-0.136
		c-1.19-0.423-2.08-0.357-3.23,0.221l-0.156,0.072c1.652,0.3,3.499,0.466,5.566,0.426
		C118.543,105.382,112.841,100.298,106.324,90.185z M131.962,98.886c-11.951-0.645-18.404-5.128-26.809-12.688
		c-0.129-0.123-0.213-0.042-0.109,0.126c3.064,5.041,13.638,15.458,26.404,13.211c-3.797,3.802-14.404,2.325-15.691,1.255
		c0.771,0.876,4.118,2.881,10.725,2.128c-5.723,1.862-9.572-0.106-10.606-0.963c1.982,2.611,3.426,3.196,3.615,3.456
		c0.323,0.229,7.429,0.398,12.917-5.719c2.05-2.038,5.128-2.051,7.187-1.023c2.215,1.109,3.372,1.109,5.587,0
		c0.81-0.399,2.075-0.72,2.867-0.072l0.409-0.349c-0.87-0.898-2.579-0.522-3.516-0.054c-2.064,1.027-2.968,1.224-5.031,0.195
		C137.849,97.355,134.97,96.567,131.962,98.886z M105.852,89.396c-1.192-2.579-1.304-3.785-1.304-3.785
		c0.332,0.011,2.122-0.024,2.609-0.024c4.274,0,13.793-0.391,16.998-1.466c6.893,1.444,13.118,1.495,18.676,0.15
		c0.19-0.05,0.193-0.087,0.004-0.064c-7.874,1.116-14.065,0.083-18.862-1.115c-4.912,0.981-13.271,1.581-22.881,1.674
		c-9.888-0.125-18.659-1.127-23.672-2.13c-8.168,2.164-11.276,2.015-19.04,1.499c-0.069-0.002-0.065,0.026,0.006,0.04
		c5.646,1.444,11.991,1.421,19.033-0.054c3.205,1.075,10.724,1.586,15.001,1.586c0.351,2.479,1.331,5.721,4.562,9.447
		c0.044-0.008,0.154,0.004,0.167,0.005c0.202,0.036,0.236,0.147,0.277,0.191c0.119,0.128,0.119,0.179,0.34,0.294
		c0.084,0.046,0.225,0.111,0.328,0.138c0.107,0.023,0.531,0.149,0.94,0.236c0.006,0.051,0.028-0.069,0.028-0.069l1.021,0.162h0.109
		l0.188-0.265l0.598-1.492c0.109-0.455,0.777-0.616,0.877-0.638c-0.032-0.023-0.096,0.028-0.176,0.007
		c-0.112-0.028-0.155-0.121-0.16-0.164l-0.153-0.173c-0.034-0.038-0.104-0.038-0.13-0.07c-0.026-0.029,0.096-0.278,0.08-0.338
		c-0.012-0.058-0.086-0.125-0.095-0.172c-0.005-0.048-0.061-0.3-0.049-0.366c0.058-0.33,0.553-0.846,1.159-0.654
		c0.443,0.147,0.537,0.401,0.579,0.645c0.086,0.554-0.126,0.813-0.242,1.007c-0.017,0.029,0.101,0.177,0.138,0.193
		c0.335,0.177,1.248-0.219,1.467-0.32c0.274-0.144,0.544-0.3,0.685-0.405c0.325-0.245,0.385-0.558,0.434-0.716l0.034-0.185
		c0.071,0.041,0.065,0.041,0.071,0.035c0.288-1.522,0.414-1.58,0.402-1.978c-0.005-0.099-0.017-0.093-0.035-0.202
		C105.855,89.784,105.817,89.47,105.852,89.396z M97.859,96.13c0.914,0.96,1.978,1.952,3.218,2.963l0.145-0.805l-0.098-0.004
		c-0.015-0.184,0.084-2.022,0.084-2.022c-0.229,0.265-0.579,0.67-0.718,0.716c-0.246,0.083-0.384-0.046-0.65-0.15
		c-0.13-0.051-0.982-0.331-1.055-0.363c-0.218-0.073-0.455-0.148-0.53-0.182C98.186,96.253,98.016,96.191,97.859,96.13z
		 M102.496,100.142l0.134,0.104l-0.148-0.898l-0.014-0.002L102.496,100.142z M35.142,102.513c5.059-3.211,9.622-12.618,3.649-17.943
		c-1.104-0.989-2.568-1.833-4.457-2.474c-2.023-0.688-4.529-1.144-7.603-1.281c-3.8-0.175-5.5-1.241-5.993-2.504
		c-0.488-1.25,0.896-3.269,5.064-4.101c1.467-0.296,2.238-0.764,2.238-1.434c0-1.161-5-1.15-8.032-1.095
		c-0.995,0.017-7.207,1.129-7.512-2.63c-0.7-0.398-0.7-0.899-0.493-1.311c0.099-0.204,0.281-0.262,0.364-0.282
		c-0.047-0.006-0.141-0.037-0.32-0.155c-0.269-0.188-0.093-0.712,0.185-0.712c0.131,0,0.126-0.08,0.319-0.029
		c-0.207-0.53-0.994-0.959-0.132-1.79c0.517-0.494-0.279-0.936-0.279-1.303c0-0.573,0.475-0.79,1.197-1.116
		c0.5-0.23,0.267-1.979,2.202-1.523c1.184,0.28,1.949,0.351,2.962-0.085c2.512-1.095,3.71-0.501,4.604,0.081
		c0.409,0.271,0.62,0.975-0.023,2.258c0.275,0,0.908,0.641,0.246,1.334c0.616-0.093,1.028,0.295,0.979,0.951
		c0,0,1.104-0.643,2.066-0.043c0.732,0.452,0.883,1.225,1.688,1.732c0.872,0.548,1.618,0.092,2.225,0.38
		c1.16,0.56,2.271,1.464,4.458,1.522c0.727,0.015,0.687,0.532-0.005,0.536c-0.65,0-1.361-0.091-2.547-0.182
		c-2.449-0.188-1.48,0.622-3.671,0.085c-2.986-0.736-1.756-0.453-4.122-0.143c-1.042,0.143-1.035-0.318-1.009-0.626
		c0.058-0.657-2.234,0.104-2.51-0.838c-0.053-0.188-0.09-0.386-0.11-0.597c-1.946,0.974-3.188,3.375-0.963,3.436
		c4.679,0.138,6.074,0.193,8.569,0.505c2.124,0.022,2.901,1.86,2.01,2.768c9.371,0.128,17.479,3.769,20.69,1.051
		c-1.388,2.701-13.544,1.061-17.588,0.6c-5.604-0.649-8.708,0.806-6.351,1.658c1.796,0.651,4.667,0.504,8.169,1.316
		c13.153,3.044,11.755,13.525,9.037,20.956c-0.527,1.45-1.39,5.235,4.281,5.852h2.488l-1.268-18.864c-0.101,0-0.199,0-0.287,0.013
		c-1.038,0.117-1.865,1.059-2.023,1.187c-0.163,0.13-1.125-1.173-1.251-1.588c0,0,0.424-0.196,0.668,0.285
		c0.069,0.132,0.142,0.304,0.537,0.132c0.146-0.063,0.804-0.853,2.121-1.053c0,0-0.496-0.59-0.644-0.786
		c-0.151-0.199-1.569-0.17-1.769-0.173c-0.537-0.013-0.85,0.079-0.771,0.54c0.058,0.323-0.247,0.429-0.247,0.429
		s-0.382-1.14-0.485-1.578c-1.169-0.37-0.143-2.474,1.218-1.056c0.014,0.015,0.712,0.357,1.692,0.145
		c0.149-0.032,1.908-1.302,2.712-1.451c0.805-0.153,2.381-0.104,4.669-1.458c9.135-5.635,18.226-16.42,18.226-21.613
		c0.026-0.239,0.118-1.041,0.902-1.299c0.196-0.07-0.453-0.092-0.474-0.667c-0.017-0.541,0.448-0.718,0.438-0.78
		c-0.079-0.016-0.411-0.376-0.411-0.885c0-0.303,0.227-0.793,0.548-1.199c0.255-0.32,0.226-1.392,0.221-1.858
		c0-0.241,0.257-0.272,0.272,0.014c0.02,0.302,0.036,1.146,0.224,1.826c0.085,0.314,0.952,1.147,0.095,2.102
		c0,0,0.778,0.822-0.095,1.436c0.799,0.169,1.06,1.193,1.005,1.464c16.581,0.866,35.487,0.866,52.085,0.008
		c0.006-0.423,0.129-1.36,1.073-1.602c0.198-0.048-0.454-0.087-0.476-0.669c-0.015-0.538,0.446-0.711,0.441-0.771
		c-0.08-0.024-0.412-0.379-0.412-0.892c0-0.3,0.224-0.79,0.547-1.2c0.255-0.322,0.226-1.392,0.223-1.854
		c-0.003-0.238,0.255-0.277,0.269,0.014c0.021,0.304,0.037,1.147,0.225,1.827c0.086,0.314,0.954,1.15,0.098,2.105
		c0-0.003,0.778,0.812-0.102,1.429c0.675,0.141,0.975,0.815,1.038,1.452c0.01,5.442,10.783,17.044,19.927,22.403
		c1.43,0.556,2.458,0.556,3.06,0.668c0.61,0.112,1.77,0.868,2.361,1.243c0.186,0.118,0.315,0.199,0.35,0.208
		c0.98,0.213,1.68-0.13,1.696-0.145c1.357-1.418,2.387,0.686,1.217,1.056c-0.105,0.438-0.488,1.578-0.488,1.578
		s-0.304-0.105-0.245-0.429c0.08-0.46-0.236-0.552-0.77-0.54c-0.202,0.002-1.619-0.026-1.767,0.173
		c-0.106,0.139-0.39,0.48-0.542,0.662l0.009,0.141c1.242,0.228,1.864,0.978,2.009,1.036c0.393,0.171,0.467,0,0.536-0.132
		c0.26-0.506,0.665-0.285,0.665-0.285c-0.126,0.416-1.086,1.719-1.247,1.588c-0.121-0.096-0.611-0.65-1.282-0.969
		c4.263,11.784,12.062,13.571,15.158,16.671c-6.417,0-10.466,0.92-12.605,0.92l-2.993-17.72c-0.083-0.04-0.151-0.072-0.151-0.072
		l1.58,18.834h17.628v1.215H20.986v-1.215C20.986,105.338,30.264,105.608,35.142,102.513z M75.195,58.497l0.121,0.009
		c0.054,0,0.118-0.009,0.181-0.026c0.623-0.127,0.479-0.668,0.3-0.925c-0.271-0.392-0.972-0.164-1.051,0.231
		C74.696,58.042,74.795,58.442,75.195,58.497z M75.327,56.008c-0.66,0.016-0.501,1.068,0.19,0.908
		C76.134,56.775,75.688,56.004,75.327,56.008z M75.459,53.978c-0.366,0.046-0.547,0.501-0.514,0.896
		c0.033,0.391,0.221,0.731,0.666,0.694c0.356-0.024,0.505-0.423,0.484-0.84C76.075,54.312,75.797,53.935,75.459,53.978z
		 M129.716,57.653c-0.061,0.305,0.1,0.833,0.751,0.692c0.624-0.13,0.478-0.672,0.299-0.928
		C130.496,57.024,129.796,57.255,129.716,57.653z M130.294,55.873c-0.659,0.012-0.498,1.062,0.194,0.902
		C131.105,56.638,130.816,55.865,130.294,55.873z M130.431,53.838c-0.366,0.041-0.552,0.502-0.516,0.892
		c0.034,0.392,0.133,0.75,0.579,0.715c0.355-0.029,0.592-0.438,0.571-0.853S130.766,53.799,130.431,53.838z M19.83,66.603
		c-0.413-0.354-0.795-0.53-1.081-0.542c-1.314-0.032-0.66,0.81-0.845,1.136c-0.49,0.858-1.689,0.738-2.055,0.643
		c-0.637-0.169-0.635,0.23-0.317,0.677c0.413,0.564-0.141,1.378-1.389,1.108c0.417,0.639,1.118,1.377,3.095,1.04
		C17.114,69.924,16.69,68.939,19.83,66.603z M24.589,74.868c-0.977,0.438-1.374,1.546-1.173,2.144
		c-0.68-0.631-0.103-1.649-0.297-1.452c-0.438,0.455-0.859,1.148-0.48,1.988c0.728,1.611,4.269,1.802,6.266,2.029
		c1.995,0.228,5.126,0.501,8.258,1.82c3.131,1.316,5.374,4.324,5.646,6.127c0.281,1.857,0.384,5.064-1.471,8.312
		c-0.211,0.369,1.285-1.113,2.153-3.578c-1.266,4.412-3.724,7.391-3.785,7.429c0.236-0.015,3.018-2.607,4.401-6.251
		c0,1.296-0.624,2.737-0.31,2.336c0.062,0,0.872-1.658,1.052-2.376c0.862-3.435,0.458-8.577-3.016-11.046
		c-3.1-2.202-4.053-2.591-6.44-3.11c-2.385-0.521-4.616-0.772-7.437-1.219C22.585,77.165,24.298,75.305,24.589,74.868z
		 M77.425,86.324c0.88,8.953,1.191,9.795,4.146,16.763c0.042,0.094,0.051-0.011,0.051-0.011l-4.188-16.752
		C77.435,86.312,77.423,86.306,77.425,86.324z M75.403,60.619c0,0-0.01-0.118-0.039-0.063c-2.076,4.065-9.825,16.002-17.906,20.276
		c-0.735,0.384-0.614,0.359,0.16,0.008c6.083-2.294,12.581-7.529,16.26-16.895C73.897,63.909,75.403,60.619,75.403,60.619z
		 M117.796,81.477c-8.105-3.151-23.049-9.861-29.779-14.883c-0.393-0.291-0.383-0.144-0.044,0.146
		c10.464,9.052,21.841,12.142,29.809,14.793C117.828,81.541,117.867,81.512,117.796,81.477z M82.162,61.141
		c4.209,0.398,10.022,1.095,15.217,1.199c4.886,0.095,12.6-0.605,19.463-1.072c0.079,0.007,0.069-0.043,0-0.043
		c-4.142,0.007-26.521,0.033-34.68-0.167C82.069,61.058,82.061,61.131,82.162,61.141z M133.887,64.86
		c0.608,1.682,4.534,11.625,13.752,16.347c-0.244-0.341-0.248-0.888-0.248-0.888c1.845,0.937,3.568,1.468,3.568,1.468
		s-0.265-0.205-0.354-0.391c-9.146-3.88-15.676-14.806-16.67-16.545C133.849,64.701,133.829,64.701,133.887,64.86z M49.95,84.498
		c0.086-0.035,1.798-1.075,1.798-1.075s-0.38-0.652-1.519-0.694c-1.093-0.029-1.497,1.118-1.497,1.118
		c0.94-1.118,2.388-0.392,2.388-0.392c-0.087,0.179-1.413,0.88-1.678,0.718c-0.267-0.17-1.47-0.648-2.531-0.738
		c-0.624-0.052-0.888-0.069-0.969-0.155c-0.17-0.104,0.028-0.444,0.252-0.363c0.154,0.061,0.138,0.086,0.197,0.263
		c0.246-0.312-0.327-0.836-0.719-0.312c-0.134,0.176-0.125,0.755,0.365,0.793c1.159,0.078,2.266,0.098,3.52,0.934
		C49.661,84.665,49.869,84.529,49.95,84.498z M55.625,80.847c-0.286,0.446-2.321,1.403-4.505,1.052
		C54.423,83.112,55.625,80.847,55.625,80.847z M52.292,83.422c0,0,4.11,0.721,6.037-2.447C56.196,82.95,52.292,83.422,52.292,83.422
		z M57.533,82.982c-1.734,1.162-4.07,1.265-4.07,1.265C56.026,85.207,57.533,82.982,57.533,82.982z M156.298,84.498
		c0.083,0.032,0.288,0.167,0.393,0.096c1.254-0.836,2.363-0.856,3.52-0.934c0.493-0.038,0.498-0.617,0.366-0.793
		c-0.394-0.524-0.966,0-0.722,0.312c0.062-0.177,0.044-0.202,0.199-0.263c0.227-0.081,0.421,0.259,0.251,0.363
		c-0.08,0.086-0.346,0.103-0.965,0.155c-1.063,0.09-2.267,0.568-2.528,0.738c-0.271,0.162-1.598-0.539-1.681-0.718
		c0,0,1.447-0.726,2.386,0.392c0,0-0.402-1.147-1.495-1.118c-1.138,0.042-1.522,0.694-1.522,0.694S156.215,84.463,156.298,84.498z
		 M150.622,80.847c0,0,1.206,2.265,4.507,1.052C152.83,82.264,150.91,81.293,150.622,80.847z M153.958,83.422
		c0,0-3.902-0.473-6.037-2.447C149.894,83.864,153.958,83.422,153.958,83.422z M148.716,82.982c0,0,2.278,2.036,4.071,1.265
		C152.787,84.247,150.721,84.377,148.716,82.982z"/>
</g>
</svg>
